<svg id="Componente_4_42" data-name="Componente 4 – 42" xmlns="http://www.w3.org/2000/svg" width="18.295" height="18.295" viewBox="0 0 18.295 18.295">
  <path id="Trazado_24900" data-name="Trazado 24900" d="M9.147,0a9.147,9.147,0,1,0,9.147,9.147A9.158,9.158,0,0,0,9.147,0Zm0,16.631a7.484,7.484,0,1,1,7.484-7.484A7.493,7.493,0,0,1,9.147,16.631Z" fill="#632678"/>
  <path id="Trazado_24901" data-name="Trazado 24901" d="M146.014,70a1.012,1.012,0,1,0,1.012,1.013A1.014,1.014,0,0,0,146.014,70Z" transform="translate(-136.867 -65.898)" fill="#632678"/>
  <path id="Trazado_24902" data-name="Trazado 24902" d="M151.012,140A1.012,1.012,0,0,0,150,141.012v6.073a1.012,1.012,0,1,0,2.024,0v-6.073A1.012,1.012,0,0,0,151.012,140Z" transform="translate(-141.865 -133.202)" fill="#632678"/>
</svg>
